<svg width="335" height="121" viewBox="0 0 335 121" fill="none" xmlns="http://www.w3.org/2000/svg">
<path d="M0 76V0.479996H3.84V76H0ZM11.52 76V0.479996H15.36V76H11.52ZM23.04 76V0.479996H38.4V76H23.04ZM25.216 94.56C27.52 94.56 29.44 95.3707 30.976 96.992L29.44 99.552L29.312 100.064L28.928 99.808C28.8427 99.4667 28.7573 99.2107 28.672 99.04C28.5013 98.784 28.2027 98.528 27.776 98.272C27.008 97.76 26.0693 97.504 24.96 97.504C23.8507 97.504 22.784 97.8027 21.76 98.4C20.736 98.912 19.9253 99.7653 19.328 100.96C18.6453 102.155 18.304 103.605 18.304 105.312V116.832H14.848V95.072H18.432L18.304 99.04C18.9013 97.6747 19.84 96.5653 21.12 95.712C22.4 94.944 23.7653 94.56 25.216 94.56ZM42.25 76V0.479996H46.09V76H42.25ZM49.93 76V0.479996H53.77V76H49.93ZM61.45 76V0.479996H69.13V76H61.45ZM53.13 117.728H73.61V120.672H53.13V117.728ZM84.5 76V0.479996H88.34V76H84.5ZM103.7 76V0.479996H107.54V76H103.7ZM115.22 76V0.479996H122.9V76H115.22ZM104.852 117.344C103.316 117.344 101.865 116.875 100.5 115.936C99.1347 115.083 98.0253 113.803 97.172 112.096C96.3187 110.304 95.892 108.171 95.892 105.696C95.892 103.221 96.3187 101.131 97.172 99.424C98.1107 97.8027 99.2627 96.5653 100.628 95.712C101.993 94.944 103.444 94.56 104.98 94.56C106.516 94.56 107.796 94.8587 108.82 95.456C109.929 96.1387 110.783 97.0773 111.38 98.272V85.216H114.964V85.472C114.793 85.728 114.665 85.9413 114.58 86.112C114.58 86.368 114.58 86.752 114.58 87.264V113.504C114.58 114.272 114.623 114.869 114.708 115.296C114.708 115.808 114.836 116.32 115.092 116.832H111.764C111.508 116.32 111.337 115.808 111.252 115.296C111.252 114.869 111.252 114.272 111.252 113.504C110.569 114.699 109.673 115.637 108.564 116.32C107.455 117.003 106.217 117.344 104.852 117.344ZM105.364 114.272C107.327 114.272 108.777 113.504 109.716 111.968C110.655 110.432 111.124 108.384 111.124 105.824C111.124 103.264 110.612 101.216 109.588 99.68C108.564 98.144 107.071 97.376 105.108 97.376C103.231 97.376 101.78 98.0587 100.756 99.424C99.732 100.875 99.22 102.795 99.22 105.184C99.22 108 99.732 110.219 100.756 111.84C101.865 113.461 103.401 114.272 105.364 114.272ZM126.75 76V0.479996H130.59V76H126.75ZM138.27 76V0.479996H142.11V76H138.27ZM145.95 76V0.479996H153.63V76H145.95ZM147.614 94.56C150.686 94.56 153.033 95.3707 154.654 96.992C156.275 98.6133 157.086 101.387 157.086 105.312V116.832H153.374V113.504C152.094 116.064 149.619 117.344 145.95 117.344C143.561 117.344 141.683 116.789 140.318 115.68C138.953 114.571 138.27 113.12 138.27 111.328C138.27 109.792 138.782 108.469 139.806 107.36C140.745 106.251 142.067 105.355 143.774 104.672C145.395 104.075 147.23 103.776 149.278 103.776C151.07 103.776 152.691 103.861 154.142 104.032C153.971 101.643 153.331 99.936 152.222 98.912C151.113 97.888 149.491 97.376 147.358 97.376C146.249 97.376 145.225 97.5893 144.286 98.016C143.262 98.4427 142.323 99.04 141.47 99.808L139.806 97.632C141.854 95.584 144.457 94.56 147.614 94.56ZM146.334 114.784C148.723 114.784 150.601 114.059 151.966 112.608C153.331 111.243 154.057 109.28 154.142 106.72C152.691 106.464 151.155 106.336 149.534 106.336C147.145 106.336 145.225 106.763 143.774 107.616C142.409 108.384 141.726 109.579 141.726 111.2C141.726 113.589 143.262 114.784 146.334 114.784ZM169 76V0.479996H172.84V76H169ZM188.2 76V0.479996H192.04V76H188.2ZM195.88 76V0.479996H203.56V76H195.88ZM191.784 117.344C189.651 117.344 187.773 116.875 186.152 115.936C184.531 114.912 183.251 113.547 182.312 111.84C181.373 110.133 180.904 108.171 180.904 105.952C180.904 103.819 181.373 101.899 182.312 100.192C183.251 98.4853 184.531 97.12 186.152 96.096C187.773 95.1573 189.651 94.688 191.784 94.688C193.491 94.688 195.069 95.0293 196.52 95.712C197.885 96.3947 199.037 97.376 199.976 98.656L197.8 100.832L197.544 101.088L197.288 100.832C197.288 100.576 197.203 100.32 197.032 100.064C196.947 99.8933 196.733 99.6373 196.392 99.296C195.709 98.6987 194.984 98.272 194.216 98.016C193.363 97.6747 192.424 97.504 191.4 97.504C190.12 97.504 188.968 97.8453 187.944 98.528C186.835 99.2107 185.981 100.192 185.384 101.472C184.701 102.667 184.36 104.075 184.36 105.696C184.36 107.317 184.701 108.811 185.384 110.176C186.067 111.456 186.963 112.437 188.072 113.12C189.267 113.888 190.547 114.272 191.912 114.272C194.131 114.272 196.051 113.376 197.672 111.584L199.592 113.888C197.459 116.192 194.856 117.344 191.784 117.344ZM211.25 76V0.479996H215.09V76H211.25ZM222.77 76V0.479996H238.13V76H222.77ZM241.97 76V0.479996H245.81V76H241.97ZM241.586 114.784C239.538 116.405 237.234 117.216 234.674 117.216C232.285 117.216 230.578 116.491 229.554 115.04C228.53 113.504 228.018 111.115 228.018 107.872C228.018 107.275 228.061 106.336 228.146 105.056L228.658 97.888H223.794V95.072H228.786L229.17 89.312L232.882 88.672H233.394V88.928C233.223 89.184 233.095 89.44 233.01 89.696C232.839 89.952 232.754 90.2933 232.754 90.72L232.242 95.072H239.41V97.888H231.986L231.602 105.312C231.517 106.592 231.474 107.403 231.474 107.744C231.474 110.304 231.773 112.053 232.37 112.992C232.967 113.845 233.906 114.272 235.186 114.272C236.125 114.272 237.021 114.101 237.874 113.76C238.642 113.419 239.538 112.864 240.562 112.096L241.586 114.784ZM253.5 76V0.479996H257.34V76H253.5ZM261.18 76V0.479996H268.86V76H261.18ZM276.54 76V0.479996H280.38V76H276.54ZM275.644 117.344C272.401 117.344 269.841 116.363 267.964 114.4C266.001 112.437 265.02 109.664 265.02 106.08C265.02 103.691 265.489 101.6 266.428 99.808C267.281 98.1013 268.476 96.8213 270.012 95.968C271.463 95.0293 273.127 94.56 275.004 94.56C277.649 94.56 279.783 95.4133 281.404 97.12C283.025 98.912 283.836 101.515 283.836 104.928C283.836 105.269 283.836 105.781 283.836 106.464H268.348C268.433 109.109 269.159 111.115 270.524 112.48C271.889 113.845 273.639 114.528 275.772 114.528C278.076 114.528 279.953 113.717 281.404 112.096L283.324 114.016C281.447 116.235 278.887 117.344 275.644 117.344ZM280.38 103.776C280.38 101.728 279.868 100.107 278.844 98.912C277.82 97.7173 276.455 97.12 274.748 97.12C273.212 97.12 271.847 97.6747 270.652 98.784C269.457 99.8933 268.732 101.557 268.476 103.776H280.38ZM295.75 76V0.479996H299.59V76H295.75ZM314.95 76V0.479996H318.79V76H314.95ZM326.47 76V0.479996H334.15V76H326.47ZM316.102 117.344C314.566 117.344 313.115 116.875 311.75 115.936C310.385 115.083 309.275 113.803 308.422 112.096C307.569 110.304 307.142 108.171 307.142 105.696C307.142 103.221 307.569 101.131 308.422 99.424C309.361 97.8027 310.513 96.5653 311.878 95.712C313.243 94.944 314.694 94.56 316.23 94.56C317.766 94.56 319.046 94.8587 320.07 95.456C321.179 96.1387 322.033 97.0773 322.63 98.272V85.216H326.214V85.472C326.043 85.728 325.915 85.9413 325.83 86.112C325.83 86.368 325.83 86.752 325.83 87.264V113.504C325.83 114.272 325.873 114.869 325.958 115.296C325.958 115.808 326.086 116.32 326.342 116.832H323.014C322.758 116.32 322.587 115.808 322.502 115.296C322.502 114.869 322.502 114.272 322.502 113.504C321.819 114.699 320.923 115.637 319.814 116.32C318.705 117.003 317.467 117.344 316.102 117.344ZM316.614 114.272C318.577 114.272 320.027 113.504 320.966 111.968C321.905 110.432 322.374 108.384 322.374 105.824C322.374 103.264 321.862 101.216 320.838 99.68C319.814 98.144 318.321 97.376 316.358 97.376C314.481 97.376 313.03 98.0587 312.006 99.424C310.982 100.875 310.47 102.795 310.47 105.184C310.47 108 310.982 110.219 312.006 111.84C313.115 113.461 314.651 114.272 316.614 114.272Z" fill="white"/>
</svg>
